<?xml version="1.0" encoding="utf-8" ?><svg xmlns="http://www.w3.org/2000/svg" xmlns:xlink="http://www.w3.org/1999/xlink" width="250" height="250" viewBox="0 0 250 250"><path fill="#0C1110" d="M78.6033 46.7699C79.5923 48.0916 78.9046 47.8586 79.3815 49.3348C78.9885 51.6059 78.4885 53.3964 79.7968 55.5476C82.3705 59.7795 93.1045 58.6289 94.6388 62.1827C98.5916 71.3385 97.4991 85.0433 98.8191 95.0324C99.3627 99.1458 101.242 102.241 101.483 106.367C101.862 112.052 101.098 117.801 101.613 123.467C102.018 127.924 104.49 131.525 103.703 136.176C103.287 138.642 100.566 144.284 97.7473 144.462L97.4594 144.231L97.495 144.118C97.5866 143.821 97.6534 143.693 97.6107 143.382C96.8 143.578 95.1162 144.076 94.5519 143.562C92.0353 141.269 98.0868 138.43 97.2508 135.836C96.1251 132.342 96.6326 129.83 96.7565 126.339C96.8732 123.247 95.8872 119.46 94.8927 116.484C94.9439 114.996 92.6485 108.948 92.2624 106.481L91.9858 106.393C90.8109 102.253 90.6833 89.9149 88.9159 87.3278L88.5208 87.2546C87.1526 88.5616 86.6136 93.719 86.4947 95.5957C86.225 99.854 89.7142 103.584 90.8475 107.238C91.8619 110.164 93.7699 115.209 94.1615 118.223C95.8053 125.048 92.7265 139.837 90.9842 146.908C89.7974 152.041 87.6838 157.53 87.2027 162.786C86.4151 171.391 88.4568 179.131 87.1205 187.856C85.8053 196.444 82.6908 204.583 81.44 213.067C80.5012 219.435 84.5458 227.365 82.1969 233.725C81.7097 235.124 73.7407 238.885 73.3254 234.43C72.6151 226.809 74.9649 219.35 75.0868 211.725C75.157 204.115 73.9577 196.714 73.6102 189.152C73.3607 183.723 73.7596 179.495 74.1361 174.171C74.2648 172.35 73.9002 167.725 73.7942 165.746C73.5469 161.127 73.5669 155.217 72.6177 150.788C71.4437 157.939 71.7389 170.289 71.5243 177.77C71.4366 180.824 72.1762 185.152 72.0036 188.479C71.6104 196.137 70.0024 203.304 70.3703 211.047C70.7032 218.05 71.8997 224.644 72.3057 231.699C72.7263 239.01 64.9319 236.724 63.1798 233.504C60.996 229.489 64.0778 220.197 63.9612 215.591C63.9651 213.172 63.7792 211.481 63.3093 209.406C61.3037 200.549 58.1169 191.685 57.5473 182.558C57.1268 175.823 59.2789 169.992 58.2722 163.013C57.591 157.844 55.6621 153.083 54.5746 148C52.2302 137.043 49.7961 125.948 52.0228 114.76C53.3549 108.067 57.7938 103.224 58.9206 97.0626C59.4278 94.2893 57.5031 86.7017 56.3667 84.0232C55.6781 88.0306 55.2893 92.1568 54.7614 96.191C54.39 98.9176 54.2982 101.788 53.7924 104.49C52.4759 111.526 49.441 118.255 48.5202 125.375C48.3938 127.465 48.8314 129.546 48.8481 131.64C48.8622 133.413 48.0718 135.535 48.4122 137.245C48.5935 138.155 50.2757 139.199 50.9141 140.253C52.4417 148.79 43.0963 144.389 41.235 135.78C40.8293 129.539 43.3965 128.443 43.8799 123.492C44.9067 118.774 43.1727 109.238 44.2366 105.053C46.6768 95.4716 47.8991 82.0956 48.299 72.3038C49.0893 52.953 60.6213 63.4638 66.0001 54.7028C66.1754 52.6589 66.2433 51.6155 66.1208 49.5798C66.2323 48.8933 66.2274 48.4789 66.6591 47.9411L67.7611 47.8272C69.8864 49.9562 70.2189 50.3707 73.0483 51.1137C76.1111 49.9501 76.6093 49.2644 78.6033 46.7699ZM42.4386 135.16C42.7069 136.405 43.1862 139.575 44.49 139.797L44.7193 139.502C44.6832 137.755 45.0102 133.861 45.8649 132.369C46.3028 133.022 45.9219 136.988 46.3778 138.728L46.6361 138.866C47.6391 137.342 47.9373 132.152 47.9043 130.198C47.8897 129.336 47.3841 127.518 47.4801 126.434C48.0606 119.874 50.8584 112.966 52.264 106.424C53.9152 98.7395 54.3879 91.2948 55.1742 83.4774C55.4751 80.4864 55.3201 75.3857 55.5856 72.1571C55.7297 72.0172 55.8517 71.8988 55.9518 71.8017C57.4607 72.2135 56.0846 79.6488 56.4564 81.3463C56.9824 83.7473 56.85 83.6532 58.4072 85.4995C66.302 88.9548 66.8652 85.4458 72.6528 83.4315C68.4529 88.2372 64.1117 89.2443 58.2815 86.501C59.1425 89.8613 60.0555 93.3282 59.8094 96.8288C59.5341 100.745 57.3652 104.019 55.7146 107.472C53.2436 112.641 51.9589 117.852 51.9667 123.603C51.9795 133.076 54.3387 142.379 56.6778 151.486C57.8081 155.888 59.1867 160.456 59.607 164.991C60.2198 171.606 57.8568 178.123 58.6552 184.81C59.296 190.176 60.6221 195.468 62.0142 200.68C63.1127 204.792 64.5233 209.054 64.7572 213.322C65.0958 219.5 61.9345 226.386 63.5296 232.384C63.7927 233.373 64.6887 234.043 65.5361 234.529C66.697 235.195 68.6569 236.019 70.0074 235.613C70.3505 235.509 70.6745 235.127 70.8306 234.816C72.429 231.623 69.5702 214.526 69.5044 209.895C69.4028 202.742 70.8434 195.713 70.988 188.575C71.1182 182.145 69.8659 175.789 70.2505 169.294L71.4081 152.379C71.7116 148.224 72.0502 144.954 71.9672 140.778C71.8259 133.668 70.2538 132.004 68.3886 126.059C69.6144 127.373 70.7409 129.562 72.8906 129.467C74.6915 129.386 76.6647 126.51 77.7953 125.197C75.6591 130.546 74.1563 131.253 73.5668 137.893C73.0303 143.936 73.8862 147.62 74.1524 153.306C74.3663 159.411 74.5254 165.462 75.0613 171.554C75.3498 175.205 74.684 178.852 74.5235 182.482C73.9784 194.801 76.8467 206.513 75.2203 218.875C74.6701 223.058 73.4477 231.274 74.4397 235.089C75.7553 236.404 79.6305 235.093 80.6134 233.954C84.4489 229.512 80.0816 219.765 80.5456 214.464C81.0259 208.976 82.3048 205.071 83.6661 199.986C84.8703 195.487 85.608 191.731 86.4831 187.227C87.9125 179.219 85.1093 171.005 86.4219 163.008C89.5366 144.032 99.4846 123 88.4819 104.673C83.7041 96.7154 85.9752 95.5276 86.5138 87.4573C84.1667 88.2078 80.7087 88.3611 78.3919 87.484C76.308 87.3632 74.3568 85.0986 73.2335 83.5101C76.8253 85.1928 76.8984 86.1331 81.179 87.1273C81.6782 86.9834 83.7673 86.7826 84.3965 86.7098C86.2272 85.3883 87.7359 84.169 89.1532 82.4102C89.3874 79.1301 88.1337 74.5913 88.5479 72.7452C88.9731 72.1751 88.7956 72.2262 89.3381 72.1009L89.6258 72.6803C89.5145 74.749 90.1267 76.2635 90.1725 78.1633C90.4175 88.3311 91.3323 98.9078 93.7144 108.811C94.7852 113.262 96.8106 118.388 97.4079 122.88C98.1574 128.516 96.8696 133.226 98.4318 139.158C97.5397 140.047 96.4514 140.978 95.9692 142.116L96.232 142.175C102.279 137.98 98.1328 135.522 99.7952 132.792L100.287 132.524L100.596 132.84C100.506 135.022 100.644 136.958 100.622 139.109C100.615 139.738 99.8235 140.511 100.019 141.135C100.641 140.957 101.109 140.453 101.404 139.849C102.868 136.856 103.662 134.456 102.765 131.109C102.377 129.662 100.849 126.637 100.716 125.643C99.8983 119.558 100.535 112.798 100.252 106.65C100.138 101.058 98.1758 99.0996 97.7684 94.8251C96.9849 84.8634 96.8575 74.5185 94.6389 64.7929C93.0567 57.8573 77.7817 61.1991 73.169 62.8761C69.8925 62.1778 63.6025 61.5939 61.0426 60.4536C58.4334 59.7476 53.9008 60.8987 51.7652 62.5699C48.0718 69.5438 48.7673 87.6147 47.4669 95.8429C46.9241 99.2771 45.2288 102.442 45.0673 105.534C44.763 111.363 45.3721 118.421 44.7673 124.169C44.2626 128.964 42.4556 129.262 42.4386 135.16ZM71.8009 130.512C71.4938 131.153 72.1104 135.208 72.5466 135.639L72.8363 135.404C73.2019 134.133 73.9782 132.208 73.6834 131.066C73.0072 130.48 72.8758 130.57 71.8009 130.512ZM68.2659 50.609C67.8499 52.99 67.5755 54.8572 66.4101 56.9858C65.6439 57.7247 64.1848 58.6529 63.9815 59.3312C64.4527 60.0716 64.4384 59.8857 65.4062 60.2904C67.3866 60.1235 69.6462 61.2557 71.653 61.4701C72.8444 61.5974 81.5692 59.9367 82.1498 59.4632C81.8967 58.5745 78.8241 56.897 78.1993 55.5907C77.6248 54.3895 77.3523 53.0112 77.0017 51.7405C76.3124 51.4896 73.8008 52.7545 72.8799 53.1382C70.6824 52.384 70.1052 51.9379 68.2659 50.609ZM93.0993 93.7729L93.5325 93.2366C94.2543 94.2801 93.7488 98.4578 93.6813 100.013C92.893 98.8304 93.0413 95.2314 93.0993 93.7729Z"/><path fill="#0C1110" d="M60.3736 167.338C61.7569 167.7 62.6671 169.659 62.7641 170.977C61.0732 170.334 60.9126 168.922 60.3736 167.338Z"/><path fill="#0C1110" d="M95.9711 94.126L96.3954 94.7555C96.4554 96.2222 96.2603 97.8287 95.4 99.0582L95.1792 98.8247C95.0194 97.98 95.75 95.1341 95.9711 94.126Z"/><path fill="#0C1110" d="M84.6043 167.399C84.8943 167.662 84.7917 167.572 84.9408 167.99C84.6215 169.344 83.79 169.966 82.6637 170.706L82.5192 170.537C82.4473 169.818 84.0161 168.136 84.6043 167.399Z"/><path fill="#121017" d="M68.4941 168.966C68.779 169.193 68.7221 169.198 68.8793 169.575C68.5457 170.23 67.8017 170.497 67.1092 170.866L66.635 170.692L66.4991 170.265C66.9509 169.662 67.7917 169.327 68.4941 168.966Z"/><path fill="#121017" d="M76.9039 169.035C77.8665 169.404 78.4484 169.554 79.1815 170.269L79.1893 170.983C78.3495 170.638 77.0513 170.248 76.6652 169.487L76.9039 169.035Z"/><defs><linearGradient id="gradient_0" gradientUnits="userSpaceOnUse" x1="99.727074" y1="105.12077" x2="87.29364" y2="108.36305"><stop offset="0" stop-color="#FEFCFE" stop-opacity="0"/><stop offset="1" stop-color="white" stop-opacity="0.050980393"/></linearGradient></defs><path fill="url(#gradient_0)" d="M89.6258 72.6803C89.7902 72.2558 89.8096 72.1439 90.1175 71.7885C90.8988 72.7028 90.3006 74.7302 90.4906 75.0867C92.5744 78.9973 92.3323 77.9888 91.7005 81.8951C91.3734 83.9176 92.4375 91.8396 93.0993 93.7729C93.0413 95.2314 92.893 98.8304 93.6813 100.013L93.3544 100.401C93.6671 101.235 93.5203 101.773 93.6201 102.609C94.2299 107.713 95.9427 112.773 97.376 117.703C97.6305 118.578 97.5052 119.926 97.9214 120.597L98.6051 120.264C99.0276 120.617 99.0131 120.71 99.1711 121.267C99.7785 120.15 99.2931 106.889 99.6015 104.363C99.6823 105.869 99.4755 105.561 100.252 106.65C100.535 112.798 99.8983 119.558 100.716 125.643C100.849 126.637 102.377 129.662 102.765 131.109C103.662 134.456 102.868 136.856 101.404 139.849C101.109 140.453 100.641 140.957 100.019 141.135C99.8235 140.511 100.615 139.738 100.622 139.109C100.644 136.958 100.506 135.022 100.596 132.84L100.287 132.524L99.7952 132.792C98.1328 135.522 102.279 137.98 96.232 142.175L95.9692 142.116C96.4514 140.978 97.5397 140.047 98.4318 139.158C96.8696 133.226 98.1574 128.516 97.4079 122.88C96.8106 118.388 94.7852 113.262 93.7144 108.811C91.3323 98.9078 90.4175 88.3311 90.1725 78.1633C90.1267 76.2635 89.5145 74.749 89.6258 72.6803ZM99.6542 129.3C99.7232 128.479 99.9353 128.032 99.5308 127.546L99.2642 127.621C99.2595 128.28 99.1053 128.827 99.6542 129.3Z"/><path fill="#0C1110" fill-opacity="0.41960785" d="M99.2642 127.621L99.5308 127.546C99.9353 128.032 99.7232 128.479 99.6542 129.3C99.1053 128.827 99.2595 128.28 99.2642 127.621Z"/><path fill="#121017" d="M73.2335 83.5101C76.8253 85.1928 76.8984 86.1331 81.179 87.1273C80.357 87.4795 79.3029 87.4491 78.3919 87.484C76.308 87.3632 74.3568 85.0986 73.2335 83.5101Z"/><path fill="#212627" d="M41.235 135.78C40.8293 129.539 43.3965 128.443 43.8799 123.492C44.9067 118.774 43.1727 109.238 44.2366 105.053C46.6768 95.4716 47.8991 82.0956 48.299 72.3038C49.0893 52.953 60.6213 63.4638 66.0001 54.7028L66.4101 56.9858C65.6439 57.7247 64.1848 58.6529 63.9815 59.3312C64.4527 60.0716 64.4384 59.8857 65.4062 60.2904C63.6071 60.4619 62.1899 59.9633 61.0426 60.4536C58.4334 59.7476 53.9008 60.8987 51.7652 62.5699C48.0718 69.5438 48.7673 87.6147 47.4669 95.8429C46.9241 99.2771 45.2288 102.442 45.0673 105.534C44.763 111.363 45.3721 118.421 44.7673 124.169C44.2626 128.964 42.4556 129.262 42.4386 135.16L41.235 135.78Z"/><path fill="#0C1110" d="M173.424 82.2732C174.909 88.3594 173.927 94.6898 174.001 100.673L173.719 101.032C173.454 100.766 173.344 98.7115 173.271 98.1221C173.137 93.8523 173.078 86.4148 173.424 82.2732Z"/><path fill="#0C1110" d="M177.887 67.9102C178.569 68.5068 178.127 69.1084 177.835 69.942C176.364 74.1385 177.149 75.8663 178.043 79.6628C174.972 77.7742 176.244 70.5981 177.887 67.9102Z"/><path fill="#0C1110" d="M163.301 160.341L163.7 160.704C163.808 161.941 162.73 170.488 162.344 171.706L162.004 171.459C161.759 168.405 162.601 163.34 163.301 160.341Z"/><path fill="#0C1110" d="M183.542 160.86L184.022 161.102C184.732 162.363 185.066 169.826 185.14 171.601C185.008 171.594 184.766 171.48 184.626 171.426C183.874 168.684 183.708 163.809 183.542 160.86Z"/><path fill="#0C1110" d="M168.863 68.3341C171.743 69.4163 171.013 76.786 169.768 79.1401C169.072 78.6083 169.469 78.067 169.787 77.165C170.763 74.3918 169.646 71.0915 168.863 68.3341Z"/><path fill="#0C1110" d="M168.295 163.904C169.515 164.761 170.036 169.846 170.024 171.358C168.818 170.468 168.453 165.479 168.295 163.904Z"/><path fill="#0C1110" d="M178.399 164.156C178.592 164.329 178.634 164.494 178.753 164.74C178.582 166.866 178.222 169.358 177.489 171.363L177.158 171.041C176.892 169.441 177.943 165.847 178.399 164.156Z"/><path fill="#0C1110" fill-opacity="0.41176471" d="M147.601 117.7C148.408 118.637 147.856 120.85 147.601 121.878L147.231 121.539C147.124 120.52 147.447 118.772 147.601 117.7Z"/><path fill="#2F2C42" fill-opacity="0.84313726" d="M173.271 98.1221C173.344 98.7115 173.454 100.766 173.719 101.032L174.001 100.673C173.983 101.911 173.662 103.124 173.394 104.336C173.268 102.168 173.256 100.296 173.271 98.1221Z"/><path fill="#0C1110" fill-opacity="0.050980393" d="M199.292 118.189C199.436 118.338 199.553 118.512 199.635 118.703C199.903 119.321 199.842 120.702 199.602 121.369L199.242 121.432C199.127 120.583 199.248 119.095 199.292 118.189Z"/><path fill="#0C1110" fill-opacity="0.38431373" d="M145.534 130.137C145.871 130.763 145.809 131.674 145.408 132.258L145.211 132.11C145.025 131.501 145.339 130.793 145.534 130.137Z"/><path fill="#0C1110" d="M150.348 141.031C149.665 139.044 148.865 139.015 147.547 137.4C145.774 135.227 148.176 132.046 148.573 129.626C148.774 128.406 148.474 126.469 148.527 125.197C148.61 119.564 151.988 113.778 152.951 108.417C154.308 100.856 155.307 92.9069 156.422 85.2862C156.567 84.2977 156.627 83.305 156.611 82.3207C156.556 79.0295 152.784 71.7034 153.242 68.8795C155.121 71.5038 156.5 80.2548 158.298 83.7687C159.076 85.2891 160.548 92.9548 160.728 94.7767C161.243 99.9893 156.249 106.591 154.733 111.552C153.429 115.609 152.838 118.057 152.779 122.381C152.585 136.39 157.423 148.883 160.085 162.309C161.411 169 158.813 176.679 159.596 184.191C160.644 194.248 164.184 202.727 165.583 212.489C166.577 219.427 163.177 225.572 164.674 232.896C166.035 234.776 170.401 237.147 171.863 234.967C173.059 233.182 172.298 225.602 171.849 223.605C170.81 223.283 168.809 224.093 167.135 224.01L166.899 223.744C168.16 222.309 172.635 224.707 171.617 218.666C171.155 215.926 170.5 211.67 170.509 208.95C170.53 202.297 171.914 195.588 172.112 188.923C172.168 183.446 171.239 177.922 171.383 172.444C171.714 159.925 174.095 147.142 172.26 134.681C172.088 133.516 172.16 132.346 172.224 131.168C166.5 135.721 161.765 135.481 156.016 131.162C162.849 133.313 165.044 135.937 171.846 130.329C174.357 123.841 173.256 123.061 171.87 116.98L172.169 116.743C172.697 117.218 172.904 118.436 173.427 119.391L173.779 119.357C174.593 117.516 174.896 116.834 176.056 115.205C174.41 120.04 172.275 126.12 175.905 130.884C177.662 133.19 182.471 133.994 185.16 133.361C186.497 133.047 188.756 131.485 190.108 131.579L190.14 131.845C188.164 134.195 181.849 134.93 179.162 133.758C177.992 133.248 176.817 132.455 175.604 132.143L175.139 132.42C172.256 138.815 176.087 163.593 175.737 171.524C175.472 177.515 175.094 185.29 175.295 191.344C175.533 198.504 177.169 206.112 176.431 213.414C176.239 215.759 175.266 218.263 175.368 220.637C175.497 223.629 179.515 222.71 180.61 223.581C179.849 224.196 177.269 223.609 175.91 223.62C175.177 224.197 172.258 236.723 177.673 235.71C179.796 235.307 181.673 234.079 182.89 232.294C183.886 226.551 180.572 218.336 181.664 211.874C183.182 202.889 186.405 195.164 187.466 185.982C188.526 176.813 185.829 170.548 187.335 161.582C187.784 157.788 189.129 154.291 190.039 150.644C192.524 140.689 195.017 130.637 194.19 120.284C193.837 115.864 192.714 111.797 190.947 107.689C189.565 104.477 186.845 101.04 186.597 97.407C186.772 88.6748 190.406 79.7591 192.761 71.3958C192.956 70.7108 193.206 69.8207 193.762 69.5292C194.478 70.883 189.838 80.2282 190.652 84.4365C192.04 91.6172 192.2 99.6691 193.982 106.917C195.366 112.543 197.315 118.087 198.352 123.804C198.767 127.926 198.35 131.666 200.085 136.022C200.425 136.873 198.835 138.354 198.141 139.074L197.658 138.908C195.841 139.896 196.512 142.538 196.287 144.267C192.8 141.966 196.949 138.126 198.905 136.562C196.37 131.836 198.372 128.463 197.439 123.179C196.452 117.591 193.96 111.856 192.994 106.456C191.683 99.1349 191.01 91.6299 189.84 84.1678C188.889 86.5373 188.664 88.3771 188.076 90.5746C185.779 99.1515 189.796 102.664 192.91 110.2C194.575 114.23 194.917 117.886 195.112 122.244C195.768 136.896 190.075 149.838 187.704 163.877C186.814 169.147 189.039 177.295 188.424 183.566C187.584 192.64 184.709 201.387 182.685 210.251C180.834 218.355 184.952 225.394 183.35 233.286C182.991 235.056 176.777 237.119 175.105 236.273C173.744 235.585 174.8 232.899 173.633 232.337C172.782 233.321 173.396 234.884 172.105 235.95C170.257 237.474 165.041 235.421 164.208 233.608C162.331 229.523 164.473 223.481 164.683 219.129C164.759 217.09 165.156 214.257 164.819 212.245C163.188 202.528 159.794 193.871 158.766 183.909C158.013 176.618 160.675 169.291 159.307 162.464C155.497 143.446 146.193 122.456 157.213 104.022C157.951 102.786 159.499 99.3678 159.766 98.0661C160.261 95.6564 158.807 86.5422 157.59 84.8079L157.197 84.7892C156.963 85.1457 154.61 104.154 154.012 106.923C152.793 112.567 148.54 122.575 149.33 128.573C149.87 132.671 149.415 133.606 148.281 137.273C150.376 138.682 153.613 141.691 150.647 144C150.03 142.84 150.993 142.398 150.348 141.031ZM173.565 230.073C174.926 225.432 174.393 223.589 174.816 219.187C175.368 216.057 175.569 213.132 175.802 209.977C176.268 203.659 174.551 197.32 174.522 191.133C174.466 179.498 175.361 167.939 174.225 156.289C174.122 155.237 174.233 152.981 173.303 152.409C172.589 154.528 173.252 158.122 172.973 160.286C171.719 170.021 172.587 179.201 172.893 188.89C173.101 195.474 170.845 203.031 171.329 209.776C171.458 214.519 172.446 219.158 172.903 223.872C173.084 225.738 172.816 227.776 172.877 229.759C173.322 230.082 173.09 230.013 173.565 230.073ZM173.61 136.328C174.136 134.512 175.124 129.403 173.438 128.088C172.908 129.422 172.276 135.657 173.61 136.328Z"/><path fill="#0C1110" fill-opacity="0.98823529" d="M173.547 200.156C174.106 201.542 174.147 214.364 173.627 216.209C172.615 214.389 172.875 202.474 173.547 200.156Z"/><path fill="#363B3B" d="M166.948 18.1661C167.428 16.9442 167.658 16.2442 168.993 15.7454C171.854 14.6773 175.488 15.0273 178.347 15.9609C180.37 16.6216 179.811 20.2431 179.75 21.9612C182.115 25.1657 185.02 27.5989 184.313 31.9124C184.099 33.2164 183.692 34.5987 183.518 35.8628C184.18 36.9152 184.906 37.9372 184.398 39.1623C181.82 45.3711 179.129 47.9484 179.931 55.2309C185.452 61.3833 193.497 58.0866 195.65 62.6342C199.226 70.1883 198.315 86.3346 199.63 94.9191C200.228 98.8381 201.938 102.568 202.18 106.545C202.546 112.569 201.798 118.989 202.393 124.965C202.842 129.473 205.667 131.584 204.509 136.828C203.791 136.592 204.037 136.784 203.621 136.046C203.706 135.641 203.782 135.234 203.848 134.826C204.385 131.426 201.998 127.808 201.603 124.391C200.931 118.595 201.856 112.694 201.422 106.886C201.124 102.91 199.381 99.3072 198.817 95.3979C197.88 88.9022 198.049 67.7356 194.719 63.186C191.297 58.5101 182.205 61.4629 177.845 55.3053C176.669 53.6456 176.004 51.4894 176.358 49.4615L176.635 49.5399C177.53 51.2945 177.785 53.1288 178.808 55.3234C179.294 51.9781 178.716 49.6186 179.508 46.0006C178.413 47.2756 177.944 48.0389 176.332 48.3607C169.667 49.8973 169.806 46.612 167.385 46.5185L167 46.1236C166.565 46.3792 166.565 46.3581 166.262 46.7511C165.884 45.7305 164.935 44.061 164.399 43.0479C164.006 42.3902 163.195 40.9995 163.026 40.3338C162.402 37.8629 162.543 28.9668 163.559 26.9051C164.437 23.9754 167.113 23.2837 167.488 21.156C167.126 20.3288 167.053 19.0924 166.948 18.1661ZM169.614 42.4542C170.883 45.3261 171.242 47.2571 174.644 47.7336C177.947 42.4362 174.193 36.5552 172.869 31.5512L172.824 31.3776C172.708 30.3667 172.555 30.0109 171.978 29.2148C170.945 33.7812 170.433 37.9111 169.614 42.4542ZM170.667 26.2316C170.272 25.2358 170.368 24.9816 169.636 24.4679C163.792 26.9108 166.916 32.6518 166.434 36.3606C166.298 37.3554 166.188 38.0749 166.186 39.0781C166.231 40.1127 166.085 40.6873 166.601 41.4603C167.021 40.8216 166.95 39.9315 166.845 39.1786C167.648 35.7108 169.498 32.2476 170.275 28.7429C170.453 27.9406 170.499 27.0728 170.667 26.2316ZM165.011 41.6196C165.032 39.5604 165.46 38.9893 163.652 37.7857C163.736 39.0851 163.737 40.0082 164.171 41.2547C164.654 41.5958 164.483 41.5719 165.011 41.6196ZM181.944 26.666C181.268 25.6973 180.99 25.204 180.05 24.5094L179.569 24.4351C179.558 25.4356 180.474 26.2146 181.188 26.9959C181.602 27.9522 181.772 28.6218 182.67 29.0212L182.889 28.6515C182.765 27.8256 182.396 27.3677 181.944 26.666ZM164.2 35.3417L164.666 35.3927C165.205 34.4379 165.297 28.8143 164.617 27.9606L164.037 28.3004C164.003 30.8507 163.995 32.7757 164.2 35.3417ZM178.73 36.0927C178.618 37.1908 178.991 46.083 179.667 46.627L179.887 46.4112C180.499 43.3694 182.218 37.9388 178.73 36.0927ZM174.307 17.3139C175.355 18.7042 175.156 20.6188 175.457 22.3634C175.406 22.4887 175.355 22.614 175.305 22.7394L174.78 22.9204C174.075 19.4554 173.861 19.4023 171.263 16.8636C169.487 19.5281 168.228 21.7131 171.3 24.1333C172.435 25.3274 175.666 23.9963 176.744 23.1052C177.215 22.7163 177.314 22.164 178.121 21.5736L178.27 21.4665C179.796 17.5104 177.914 16.1002 174.079 16.4333L173.879 16.7418L174.307 17.3139ZM177.239 46.4842C177.583 45.785 177.798 45.1585 178.011 44.4084C178.744 41.8274 177.431 33.8994 174.954 32.6384C175.234 35.9111 176.698 38.0173 177.041 41.3199C177.245 43.2807 176.178 45.4389 176.653 46.5623C177.091 46.5946 176.919 46.6638 177.239 46.4842ZM181.711 38.2165C182.113 36.5978 182.567 35.0667 182.337 33.3917C181.813 29.5647 179.758 24.799 175.259 25.0227C174.885 25.3617 174.516 25.5509 174.614 26.0706C175.452 30.5413 179.897 33.7991 181.711 38.2165Z"/><path fill="#C1BDC3" fill-opacity="0.85490197" d="M163.652 37.7857C165.46 38.9893 165.032 39.5604 165.011 41.6196C164.483 41.5719 164.654 41.5958 164.171 41.2547C163.737 40.0082 163.736 39.0851 163.652 37.7857Z"/><path fill="#F1EEF0" fill-opacity="0.21568628" d="M166.186 39.0781C166.188 38.0749 166.298 37.3554 166.434 36.3606C166.459 37.3768 166.406 38.2581 166.845 39.1786C166.95 39.9315 167.021 40.8216 166.601 41.4603C166.085 40.6873 166.231 40.1127 166.186 39.0781Z"/><defs><linearGradient id="gradient_1" gradientUnits="userSpaceOnUse" x1="164.72688" y1="35.642719" x2="177.61256" y2="40.685822"><stop offset="0" stop-color="#535756"/><stop offset="1" stop-color="#6E6A6F"/></linearGradient></defs><path fill="url(#gradient_1)" d="M170.667 26.2316C170.899 26.945 170.959 27.6836 171.036 28.4262L171.246 28.4992C171.397 28.0661 171.467 27.7774 171.571 27.3302C171.652 27.9566 171.646 28.795 171.978 29.2148C170.945 33.7812 170.433 37.9111 169.614 42.4542C170.883 45.3261 171.242 47.2571 174.644 47.7336C175.195 48.3608 175.285 48.1853 176.332 48.3607C169.667 49.8973 169.806 46.612 167.385 46.5185L167 46.1236C166.565 46.3792 166.565 46.3581 166.262 46.7511C165.884 45.7305 164.935 44.061 164.399 43.0479C164.774 42.6204 164.846 42.1734 165.011 41.6196C165.032 39.5604 165.46 38.9893 163.652 37.7857C163.605 37.0574 163.538 37.3538 164.049 36.6479L164.947 36.8335C166.278 37.3848 166.05 37.6673 166.186 39.0781C166.231 40.1127 166.085 40.6873 166.601 41.4603C167.021 40.8216 166.95 39.9315 166.845 39.1786C167.648 35.7108 169.498 32.2476 170.275 28.7429C170.453 27.9406 170.499 27.0728 170.667 26.2316Z"/><path fill="#9C9C9D" d="M167.488 21.156C168.236 22.3672 168.62 22.3906 168.783 23.652C168.734 23.7521 165.931 26.3247 165.374 26.9778C165.365 28.6014 165.569 35.9401 164.947 36.8335L164.049 36.6479C163.538 37.3538 163.605 37.0574 163.652 37.7857C163.736 39.0851 163.737 40.0082 164.171 41.2547C164.654 41.5958 164.483 41.5719 165.011 41.6196C164.846 42.1734 164.774 42.6204 164.399 43.0479C164.006 42.3902 163.195 40.9995 163.026 40.3338C162.402 37.8629 162.543 28.9668 163.559 26.9051C164.437 23.9754 167.113 23.2837 167.488 21.156ZM164.2 35.3417L164.666 35.3927C165.205 34.4379 165.297 28.8143 164.617 27.9606L164.037 28.3004C164.003 30.8507 163.995 32.7757 164.2 35.3417Z"/><path fill="#F1EEF0" fill-opacity="0.10588235" d="M164.037 28.3004L164.617 27.9606C165.297 28.8143 165.205 34.4379 164.666 35.3927L164.2 35.3417C163.995 32.7757 164.003 30.8507 164.037 28.3004Z"/><path fill="#767677" d="M163.559 26.9051C163.894 27.5093 163.974 27.6181 164.037 28.3004C164.003 30.8507 163.995 32.7757 164.2 35.3417C163.908 35.9127 163.956 35.9807 164.049 36.6479C163.538 37.3538 163.605 37.0574 163.652 37.7857C163.736 39.0851 163.737 40.0082 164.171 41.2547C164.654 41.5958 164.483 41.5719 165.011 41.6196C164.846 42.1734 164.774 42.6204 164.399 43.0479C164.006 42.3902 163.195 40.9995 163.026 40.3338C162.402 37.8629 162.543 28.9668 163.559 26.9051Z"/><path fill="#C1BDC3" d="M171.571 27.3302C171.829 26.2653 171.641 26.3251 172.322 25.6879C173.481 26.1992 173.875 29.0587 174.512 30.1615C174.996 31.0017 175.3 31.3397 175.36 32.3266L175.122 32.8552L174.625 33.0132C174.276 32.3218 174.018 31.7086 173.72 30.9965L173.268 30.8739C173.029 31.0796 172.959 31.0989 172.824 31.3776C172.708 30.3667 172.555 30.0109 171.978 29.2148C171.646 28.795 171.652 27.9566 171.571 27.3302Z"/><path fill="#F1EEF0" fill-opacity="0.0078431377" d="M174.954 32.6384C177.431 33.8994 178.744 41.8274 178.011 44.4084C177.798 45.1585 177.583 45.785 177.239 46.4842C176.919 46.6638 177.091 46.5946 176.653 46.5623C176.178 45.4389 177.245 43.2807 177.041 41.3199C176.698 38.0173 175.234 35.9111 174.954 32.6384Z"/><path fill="#F1EEF0" fill-opacity="0.54509807" d="M178.73 36.0927C182.218 37.9388 180.499 43.3694 179.887 46.4112L179.667 46.627C178.991 46.083 178.618 37.1908 178.73 36.0927Z"/><path fill="#C1BDC3" fill-opacity="0.97647059" d="M174.307 17.3139C176.365 18.1582 176.953 19.0168 177.629 21.1813C178.04 21.452 177.87 21.4454 178.27 21.4665L178.121 21.5736C177.314 22.164 177.215 22.7163 176.744 23.1052C175.666 23.9963 172.435 25.3274 171.3 24.1333C173.079 24.3657 173.76 24.4835 174.78 22.9204L175.305 22.7394C175.355 22.614 175.406 22.4887 175.457 22.3634C175.156 20.6188 175.355 18.7042 174.307 17.3139Z"/><path fill="#C1BDC3" d="M169.217 16.3594C169.586 16.5059 169.722 16.6631 170.014 16.9215C169.934 17.7071 169.222 18.5232 168.734 19.369C167.915 19.1334 167.953 18.8347 167.909 18.1394C168.294 17.1652 168.429 17.063 169.217 16.3594Z"/><path fill="#EEEFE7" fill-opacity="0.082352944" d="M181.188 26.9959C180.474 26.2146 179.558 25.4356 179.569 24.4351L180.05 24.5094C180.99 25.204 181.268 25.6973 181.944 26.666L181.188 26.9959Z"/><path fill="#EEEFE7" fill-opacity="0.23921569" d="M181.944 26.666C182.396 27.3677 182.765 27.8256 182.889 28.6515L182.67 29.0212C181.772 28.6218 181.602 27.9522 181.188 26.9959L181.944 26.666Z"/><path fill="#212627" d="M74.5592 21.129C78.7785 20.9138 78.2104 22.1172 80.8987 24.8544L81.1144 24.5186C81.8104 25.3936 83.1894 27.3555 83.2832 28.5037C84.2801 31.2385 84.0676 39.2448 82.7236 41.9095C82.3485 42.6532 81.5356 44.0841 81.0639 44.8071C79.9524 46.3633 79.7449 47.4705 79.3815 49.3348C78.9046 47.8586 79.5923 48.0916 78.6033 46.7699C78.6372 45.9969 79.0943 44.4595 79.3481 43.7176C79.7567 42.4517 80.2882 37.0211 79.7239 36.0444L78.9789 35.9242C79.1668 35.5156 79.0781 35.5363 78.9914 34.9948C79.0736 34.8717 79.2877 34.3491 79.3612 34.1811C79.3118 32.4783 78.0426 31.6163 76.7988 30.4217C73.8118 29.7607 71.2275 29.5523 68.2718 30.6163C67.0128 31.6094 65.8703 32.6298 65.08 34.064L65.2682 34.803C68.0126 35.2478 67.7703 34.3553 70.538 35.9193L70.5142 36.2124C69.3172 36.441 66.5461 36.0483 65.0979 35.9466C65.0644 36.6884 65.0391 38.2517 64.9322 38.921C64.2805 37.8272 65.0557 36.2515 63.8765 34.7699C62.5963 36.3682 61.7887 37.2496 61.921 39.2939C61.8405 39.1192 61.7758 38.9471 61.7018 38.7705C61.306 37.8254 62.0923 32.4725 62.0815 30.9976C62.1559 25.9223 63.3043 25.642 66.6161 22.0652L66.8655 21.5035L67.1559 21.2576L67.5694 22.1457L67.8531 22.2299L68.0418 21.7824C68.6561 21.4721 68.9512 21.4861 69.6266 21.4145C71.3785 21.0697 72.8731 21.2932 74.5592 21.129ZM75.2908 24.0014L74.7102 24.261C74.0912 23.8922 73.9868 23.7073 73.5633 23.1421L73.1367 23.2647C72.6659 24.8344 72.4856 27.8103 74.3306 28.5026C76.4807 28.0574 76.0558 27.2475 77.2446 25.8054C76.8646 24.7926 76.3507 24.2857 75.2908 24.0014ZM69.0365 22.2864L68.0234 26.1001C68.4353 27.3267 68.5716 28.2742 69.6663 28.9587C70.5248 27.8847 70.3879 23.4491 69.5706 22.478L69.0365 22.2864ZM72.2757 28.5544C72.4253 27.8135 72.3364 23.6155 72.3524 22.5481C72.0798 22.1721 72.0335 22.2005 71.5978 22.0613C70.5527 23.7925 70.0526 26.2877 71.2108 28.0838C71.6296 28.2985 71.8311 28.4049 72.2757 28.5544ZM79.9339 25.7159C79.2298 24.9421 79.4485 24.9261 78.6358 24.8518C78.0597 25.8097 78.3394 27.6596 79.1674 28.3301L79.6171 28.2725L79.9339 25.7159Z"/><path fill="#9C9C9D" d="M81.1144 24.5186C81.8104 25.3936 83.1894 27.3555 83.2832 28.5037C84.2801 31.2385 84.0676 39.2448 82.7236 41.9095C82.3485 42.6532 81.5356 44.0841 81.0639 44.8071C79.9524 46.3633 79.7449 47.4705 79.3815 49.3348C78.9046 47.8586 79.5923 48.0916 78.6033 46.7699C78.6372 45.9969 79.0943 44.4595 79.3481 43.7176C79.7567 42.4517 80.2882 37.0211 79.7239 36.0444L78.9789 35.9242C79.1668 35.5156 79.0781 35.5363 78.9914 34.9948C79.0736 34.8717 79.2877 34.3491 79.3612 34.1811C79.3118 32.4783 78.0426 31.6163 76.7988 30.4217C73.8118 29.7607 71.2275 29.5523 68.2718 30.6163C68.3 30.4996 68.4881 30.2456 68.5659 30.1283C70.9776 28.7612 74.0099 29.1835 76.6367 29.5259C77.0481 29.975 80.0169 33.1174 80.1707 33.141C80.1185 29.9568 80.1034 29.9465 81.0237 26.9576C81.1587 26.5186 81.2682 26.9504 81.6037 25.9632L80.8987 24.8544L81.1144 24.5186Z"/><path fill="#767677" d="M79.3481 43.7176C80.1118 43.1982 80.0306 43.0505 80.756 43.1783C81.0257 43.8684 81.0182 44.0834 81.0639 44.8071C79.9524 46.3633 79.7449 47.4705 79.3815 49.3348C78.9046 47.8586 79.5923 48.0916 78.6033 46.7699C78.6372 45.9969 79.0943 44.4595 79.3481 43.7176Z"/><path fill="#767677" d="M81.1144 24.5186C81.8104 25.3936 83.1894 27.3555 83.2832 28.5037C83.2809 29.2266 83.2527 29.364 83.0614 30.0628C82.443 30.1346 82.3953 28.0314 81.0237 26.9576C81.1587 26.5186 81.2682 26.9504 81.6037 25.9632L80.8987 24.8544L81.1144 24.5186Z"/><path fill="#565C5F" d="M66.6161 22.0652C67.1974 23.4637 65.9281 24.368 65.1893 25.6538C65.3957 27.1113 65.5618 28.5742 65.6875 30.0408L65.1939 29.8095C65.1297 29.9643 64.991 30.267 64.9606 30.415C65.1165 32.7415 64.1705 33.1827 63.8765 34.7699C62.5963 36.3682 61.7887 37.2496 61.921 39.2939C61.8405 39.1192 61.7758 38.9471 61.7018 38.7705C61.306 37.8254 62.0923 32.4725 62.0815 30.9976C62.1559 25.9223 63.3043 25.642 66.6161 22.0652Z"/><path fill="#C1BDC3" d="M62.2844 35.9062C62.7023 34.6851 62.9935 33.8592 63.1004 32.5434C63.1861 31.4891 63.3095 28.0338 64.165 27.5579C64.8905 28.4592 64.4466 29.3867 64.9606 30.415C65.1165 32.7415 64.1705 33.1827 63.8765 34.7699C62.5963 36.3682 61.7887 37.2496 61.921 39.2939C61.8405 39.1192 61.7758 38.9471 61.7018 38.7705C61.306 37.8254 62.0923 32.4725 62.0815 30.9976C62.2086 32.344 62.1953 34.4188 62.2844 35.9062Z"/><path fill="#F1EEF0" d="M66.8655 21.5035L67.1559 21.2576L67.5694 22.1457L67.8531 22.2299C67.9325 24.3893 68.6297 30.8036 66.014 30.8766C65.7394 30.4825 65.76 30.4894 65.6875 30.0408C65.5618 28.5742 65.3957 27.1113 65.1893 25.6538C65.9281 24.368 67.1974 23.4637 66.6161 22.0652L66.8655 21.5035Z"/><path fill="#EEEFE7" d="M75.7538 23.3002C75.0164 22.9178 74.82 22.9939 74.5907 22.3779C76.3602 21.3922 80.0848 23.8622 79.9339 25.7159C79.2298 24.9421 79.4485 24.9261 78.6358 24.8518C78.0597 25.8097 78.3394 27.6596 79.1674 28.3301L79.6171 28.2725C79.9858 29.0843 79.9591 29.8883 79.3803 30.536L78.6714 30.5447C75.7989 29.0386 78.5736 27.1212 77.7221 24.9365L77.6473 24.7497C77.4333 25.1701 77.2609 25.3673 77.2446 25.8054C76.8646 24.7926 76.3507 24.2857 75.2908 24.0014L75.7538 23.3002Z"/><path fill="#565C5F" d="M75.7538 23.3002C76.4264 23.7862 77.0164 24.2069 77.6473 24.7497C77.4333 25.1701 77.2609 25.3673 77.2446 25.8054C76.8646 24.7926 76.3507 24.2857 75.2908 24.0014L75.7538 23.3002Z"/><path fill="#F1EEF0" fill-opacity="0.98431373" d="M77.2446 25.8054C76.0558 27.2475 76.4807 28.0574 74.3306 28.5026C72.4856 27.8103 72.6659 24.8344 73.1367 23.2647L73.5633 23.1421C73.9868 23.7073 74.0912 23.8922 74.7102 24.261L75.2908 24.0014C76.3507 24.2857 76.8646 24.7926 77.2446 25.8054Z"/><path fill="#F1EEF0" fill-opacity="0.98823529" d="M69.0365 22.2864L69.5706 22.478C70.3879 23.4491 70.5248 27.8847 69.6663 28.9587C68.5716 28.2742 68.4353 27.3267 68.0234 26.1001L69.0365 22.2864Z"/><path fill="#F1EEF0" fill-opacity="0.96078432" d="M71.5978 22.0613C72.0335 22.2005 72.0798 22.1721 72.3524 22.5481C72.3364 23.6155 72.4253 27.8135 72.2757 28.5544C71.8311 28.4049 71.6296 28.2985 71.2108 28.0838C70.0526 26.2877 70.5527 23.7925 71.5978 22.0613Z"/><path fill="#F1EEF0" fill-opacity="0.0078431377" d="M79.6171 28.2725L79.1674 28.3301C78.3394 27.6596 78.0597 25.8097 78.6358 24.8518C79.4485 24.9261 79.2298 24.9421 79.9339 25.7159L79.6171 28.2725Z"/><path fill="#121017" d="M71.6474 45.0888C72.0239 45.0456 72.402 45.0189 72.7807 45.0086C74.0798 44.9789 74.7533 45.0902 75.688 45.9788C76.32 47.643 75.046 48.4767 73.679 49.1859C71.5606 49.8112 69.4744 48.0531 69.9625 45.9228C70.6905 45.2028 70.5543 45.4022 71.6474 45.0888Z"/><path fill="#212627" d="M166.262 46.7511C166.565 46.3581 166.565 46.3792 167 46.1236L167.385 46.5185C168.63 50.3341 167.679 52.382 168.158 55.8432C168.786 54.5224 170.164 50.5148 170.495 50.0486C170.858 51.0644 170.294 53.5534 169.784 54.553C169.003 56.0837 166.67 57.5585 165.308 58.3031C162.29 59.9532 152.735 60.3888 151.651 64.0172C148.642 74.0908 149.574 85.1763 148.192 95.5609C147.64 99.6753 145.781 103.311 145.564 107.579C145.28 113.167 145.875 119.124 145.409 124.601C145.077 128.492 142.723 130.395 143.082 135.068C143.537 136.623 144.673 139.905 146.224 140.566L146.701 140.36C146.766 138.676 144.061 137.782 144.24 135.234L144.676 135.17C146.052 137.66 146.397 138.139 148.676 139.867C148.911 140.724 149.104 141.762 149.684 142.405L150.033 142.314C150.26 141.744 150.301 141.641 150.348 141.031C150.993 142.398 150.03 142.84 150.647 144C146.237 146.054 142.606 138.459 142.275 135.014C141.708 131.255 144.317 127.993 144.549 124.374C145.159 114.844 143.756 107.304 146.835 97.9533C148.58 92.6514 147.836 83.0919 148.813 77.1872C149.978 70.1538 147.886 60.1908 158.005 59.449C161.038 59.202 164.987 57.3845 167.284 55.3303C167.225 52.5058 167.384 49.3129 166.262 46.7511Z"/><path fill="#0C1110" d="M88.4554 92.8755L88.8346 93.3312C89.0237 94.662 89.2128 97.0959 88.6329 98.3221C87.5986 97.1651 87.9729 94.2414 88.4554 92.8755Z"/><path fill="#767677" d="M198.141 139.074C199.869 140.271 201.635 136.677 202.332 135.519C203.007 135.347 202.299 135.777 203.621 136.046C204.037 136.784 203.791 136.592 204.509 136.828C204.181 139.222 202.419 141.766 200.487 143.158C198.626 144.498 198.473 144.525 196.287 144.267C196.512 142.538 195.841 139.896 197.658 138.908L198.141 139.074Z"/><path fill="#121017" fill-opacity="0.97647059" d="M69.3533 19.0539C70.4008 19.0847 74.0542 19.0611 74.598 19.566L74.1451 19.8635C72.979 19.9267 70.0832 20.2543 69.2459 19.6172L69.3533 19.0539Z"/><defs><linearGradient id="gradient_2" gradientUnits="userSpaceOnUse" x1="62.598042" y1="35.43301" x2="66.973076" y2="47.072174"><stop offset="0" stop-color="#414545"/><stop offset="1" stop-color="#6B6971"/></linearGradient></defs><path fill="url(#gradient_2)" d="M63.8765 34.7699C65.0557 36.2515 64.2805 37.8272 64.9322 38.921C65.1974 42.7745 65.7992 44.489 67.7611 47.8272L66.6591 47.9411C66.2274 48.4789 66.2323 48.8933 66.1208 49.5798C65.8035 47.0316 63.0264 42.5285 61.921 39.2939C61.7887 37.2496 62.5963 36.3682 63.8765 34.7699Z"/><path fill="#363B3B" d="M66.8655 21.5035C64.2256 12.5017 77.5885 14.81 79.2769 17.4808C79.463 18.3456 79.5655 18.5841 79.2743 19.4247C78.874 19.9343 79.2067 20.4019 78.8596 21.2767L78.4939 21.4346C78.0805 20.6439 78.5165 19.2537 78.1093 17.9087C77.2869 17.152 77.2311 17.3387 75.9801 17.0551C73.9176 16.9488 67.7399 15.2857 67.6968 19.1195C67.6879 19.9124 67.7716 20.3544 68.2549 20.9737L69.6266 21.4145C68.9512 21.4861 68.6561 21.4721 68.0418 21.7824L67.8531 22.2299L67.5694 22.1457L67.1559 21.2576L66.8655 21.5035Z"/><path fill="#F1EEF0" fill-opacity="0.98039216" d="M91.9858 106.393L92.2624 106.481C92.6485 108.948 94.9439 114.996 94.8927 116.484L94.3726 116.392C94.0694 117.029 94.1464 117.512 94.1615 118.223C93.7699 115.209 91.8619 110.164 90.8475 107.238C91.2806 107.236 91.3754 107.179 91.7696 107.036L91.9858 106.393Z"/><path fill="#F1EEF0" fill-opacity="0.90588236" d="M75.9801 17.0551C77.2311 17.3387 77.2869 17.152 78.1093 17.9087C78.5165 19.2537 78.0805 20.6439 78.4939 21.4346L78.8596 21.2767C79.2067 20.4019 78.874 19.9343 79.2743 19.4247C79.2237 20.4385 79.1896 21.3957 79.0419 22.4043L81.1144 24.5186L80.8987 24.8544C78.2104 22.1172 78.7785 20.9138 74.5592 21.129C75.1749 21.1033 75.4864 21.1592 75.9685 20.7877C76.3126 19.9873 76.0255 18.1343 75.9801 17.0551Z"/><path fill="#F1EEF0" fill-opacity="0.023529412" d="M143.082 135.068C143.519 135.079 143.851 135.044 144.24 135.234C144.061 137.782 146.766 138.676 146.701 140.36L146.224 140.566C144.673 139.905 143.537 136.623 143.082 135.068Z"/><path fill="#0C1110" d="M72.5866 199.43C72.9455 200.951 73.001 205.815 72.5893 207.322C71.7985 205.645 71.9009 201.184 72.5866 199.43Z"/><path fill="#565C5F" d="M78.9789 35.9242C77.7264 36.202 76.2738 36.6896 75.1098 36.2677L75.0645 35.9052C76.4531 34.9488 77.3293 35.0318 78.9914 34.9948C79.0781 35.5363 79.1668 35.5156 78.9789 35.9242Z"/><path fill="#0C1110" fill-opacity="0.92156863" d="M93.0993 93.7729L93.5325 93.2366C94.2543 94.2801 93.7488 98.4578 93.6813 100.013C92.893 98.8304 93.0413 95.2314 93.0993 93.7729Z"/><path fill="#0C1110" fill-opacity="0.86666667" d="M157.464 93.1357C158.395 94.7697 157.855 98.0213 157.624 99.8054C157.33 99.7745 157.393 99.7582 157.111 99.5962C157.139 97.7807 157.078 94.8089 157.464 93.1357Z"/><path fill="#0C1110" fill-opacity="0.89411765" d="M189.356 93.1437L189.611 93.3457C189.955 94.0462 189.89 97.8207 189.917 98.9007L189.522 98.8785C188.936 97.9626 189.278 94.3244 189.356 93.1437Z"/><path fill="#0C1110" d="M50.4944 133.88C51.1428 134.902 50.9386 136.059 50.4805 137.089C49.6794 136.271 50.0215 134.804 50.4944 133.88Z"/></svg>