<svg width="244" height="244" viewBox="0 0 244 244" fill="none" xmlns="http://www.w3.org/2000/svg">
<path fill-rule="evenodd" clip-rule="evenodd" d="M110.923 0.102859C97.3747 2.12153 90.2524 3.67714 82.4453 6.32213C60.7482 13.6737 40.1788 28.239 26.1599 46.1778C18.4319 56.0668 10.3437 70.7953 6.78977 81.4504C3.09937 92.5128 1.15517 101.875 0.356878 112.427C-2.39963 148.871 10.9096 184.134 36.9034 209.257C58.0124 229.659 82.5823 240.87 112.054 243.545C138.752 245.97 167.241 238.615 189.568 223.534C196.686 218.727 201.459 214.754 208.131 208.085C221.919 194.302 231.032 179.859 237.33 161.808C249.075 128.145 245.134 89.5287 226.89 59.5181C225.907 57.9014 224.759 55.9682 224.338 55.2221C223.149 53.1143 215.624 43.3551 212.857 40.333C208.917 36.0293 201.069 28.5076 198.844 26.9032C197.725 26.0965 196.539 25.1658 196.207 24.8352C195.876 24.5047 192.856 22.391 189.496 20.1377C181.029 14.4579 168.567 8.46019 159.291 5.59949C145.554 1.36317 138.318 0.252089 123.128 0.0472372C117.162 -0.0332565 111.669 -0.00838525 110.923 0.102859ZM109.983 4.14111C91.1511 6.19913 71.3926 13.1948 57.442 22.7442C55.8725 23.8187 54.4907 24.6978 54.3718 24.6978C54.2529 24.6978 51.674 26.6821 48.6409 29.1068C41.7311 34.631 34.7069 41.6069 29.858 47.7606C27.7999 50.3721 25.8733 52.8154 25.5763 53.1907C24.9331 54.0038 20.8024 60.4429 19.487 62.6836C13.0125 73.7117 7.98495 87.4621 5.43322 101.122C3.56315 111.132 3.20785 128.042 4.65843 137.977C6.62433 151.438 11.0285 165.293 17.0094 176.831C24.3151 190.924 36.7985 205.76 49.7863 215.785C60.203 223.824 74.1867 231.188 85.9197 234.81C128.574 247.981 173.268 237.35 204.862 206.519C207.301 204.139 210.453 200.766 211.867 199.025C213.281 197.284 214.564 195.758 214.718 195.634C215.241 195.212 220.798 187.285 222.642 184.329C234.851 164.76 241.25 140.53 240.257 117.627C239.985 111.361 239.339 105.513 238.232 99.3127C237.553 95.5006 237.189 94.0892 234.615 85.2512C233.717 82.1653 229.866 72.7512 227.882 68.7884C226.286 65.6021 220.006 55.2528 219.558 55.0715C219.353 54.9883 219.186 54.7255 219.186 54.4868C219.186 54.2485 218.986 53.8075 218.742 53.5073C218.498 53.207 217.266 51.6383 216.003 50.0216C204.982 35.9054 191.882 24.9008 176.468 16.8103C156.763 6.46774 131.955 1.74032 109.983 4.14111ZM114.766 9.14393C94.0237 10.9795 76.4694 16.8754 60.5262 27.3617C57.2688 29.5039 51.9448 33.4196 50.7975 34.5157C50.2976 34.9942 49.5553 35.5753 49.149 35.8073C47.5705 36.7081 39.1721 45.1527 35.7443 49.2854C32.7772 52.8629 28.4273 58.5296 28.4273 58.8167C28.4273 58.9967 27.8437 59.9916 27.1304 61.0271C22.8343 67.2636 17.79 77.7893 14.9106 86.5251C10.9349 98.586 9.44186 108.537 9.44186 122.973C9.44186 140.365 13.483 157.215 21.4651 173.106C22.8953 175.952 29.6256 187.005 30.2273 187.494C30.3801 187.618 30.9917 188.432 31.587 189.303C34.9492 194.222 44.809 204.537 50.5769 209.172C52.193 210.47 53.8655 211.815 54.294 212.161C56.7205 214.116 65.9524 219.873 70.1907 222.075C104.372 239.831 145.114 238.938 178.05 219.711C182.292 217.235 190.353 211.879 191.376 210.858C191.667 210.568 192.851 209.619 194.008 208.748C195.165 207.878 198.812 204.415 202.112 201.055C220.048 182.786 230.466 161.349 233.879 135.686C234.729 129.302 234.745 115.05 233.91 108.34C232.578 97.6228 229.901 87.1935 226.43 79.1893C224.097 73.808 222.008 69.3885 221.144 68.0061C220.564 67.0782 220.09 66.2117 220.09 66.0806C220.09 65.9494 218.737 63.758 217.083 61.2103C198.514 32.6065 169.931 14.357 136.868 9.99454C131.94 9.34426 118.392 8.82286 114.766 9.14393ZM114.34 13.3387C113.336 13.619 113.569 13.8596 116.934 16.0194C118.967 17.3244 120.993 18.5391 121.435 18.7186C121.876 18.8981 123.76 19.8898 125.621 20.9227C134.508 25.8545 148.872 30.6394 161.325 32.8177C169.533 34.2535 186.66 35.2619 186.627 34.3073C186.586 33.0981 169.642 23.5103 163.133 21.0131C157.02 18.6675 155.908 18.2777 152.285 17.2064C143.23 14.5302 131.561 12.9158 121.775 12.9855C118.293 13.0103 114.947 13.1691 114.34 13.3387ZM105.273 14.1576C101.606 14.7604 94.6037 16.288 92.4493 16.955L89.9373 17.7323L92.9718 22.4724C101.59 35.9352 111.85 47.6629 123.806 57.7196C125.422 59.0785 126.846 60.2995 126.971 60.4325C127.095 60.5654 128.722 61.8099 130.587 63.1986C151.865 79.0446 175.957 88.9991 202.234 92.8027C206.836 93.4688 227.322 94.243 227.322 93.751C227.322 93.6022 226.793 91.7915 226.146 89.7267C221.967 76.3915 214.887 63.2041 206.514 53.1618C202.361 48.1807 198.749 44.3758 194.68 40.697L192.119 38.3812L180.677 38.1316C173.72 37.9797 167.287 37.5912 164.263 37.1408C154.399 35.6707 141.814 32.1412 131.978 28.0853C127.86 26.3872 119.089 21.9528 118.91 21.4785C118.826 21.2596 118.499 21.0801 118.181 21.0801C117.863 21.0801 115.287 19.5326 112.455 17.6414C106.773 13.8465 106.872 13.8944 105.273 14.1576ZM84.4795 19.3784C83.8579 19.6524 82.6881 20.1472 81.8803 20.4782C76.5133 22.6768 73.4083 24.166 68.4323 26.9281C66.4433 28.0319 63.8518 29.6097 62.6734 30.4341C61.4949 31.2585 60.3422 31.9332 60.1121 31.9332C59.8816 31.9332 59.6253 32.0941 59.5421 32.2904C59.4594 32.4871 58.3745 33.3517 57.1314 34.2123C55.8883 35.0729 54.7696 35.8787 54.6452 36.0031C54.5209 36.1274 52.8936 37.5483 51.029 39.1604C46.0308 43.4813 38.7291 51.0536 35.9921 54.7545C29.6473 63.3334 25.6771 70.0763 21.6323 79.1414C16.48 90.6891 13.0645 106.725 13.0595 119.392L13.0581 123.418L15.4715 119.572C20.2423 111.971 27.7899 103.641 34.9818 98.0416C36.9707 96.4932 38.8164 95.0515 39.0835 94.8386C40.1978 93.95 48.018 88.9761 52.2092 86.4907C54.8437 84.9288 63.3474 80.772 63.9092 80.772C64.8029 80.772 75.8294 74.8191 79.5907 72.3057C83.8177 69.4817 90.9915 63.6382 93.531 60.9511C97.032 57.2466 101.66 51.7129 103.239 49.3433C104.233 47.851 105.237 46.493 105.47 46.3252C105.91 46.0087 105.639 45.5737 103.251 42.7541C102.498 41.866 101.381 40.5433 100.767 39.8148C98.521 37.1481 92.3087 28.4045 89.3004 23.6758C87.6012 21.0045 86.0756 18.8326 85.9102 18.8498C85.7447 18.8665 85.101 19.1044 84.4795 19.3784ZM107.412 49.9665C105.69 52.8823 99.2158 60.4727 94.8157 64.7348C90.0327 69.3677 84.5274 73.8093 81.1611 75.752C80.1268 76.3485 79.1794 76.959 79.0551 77.1087C78.6713 77.5699 74.4837 79.8495 70.8113 81.596L67.314 83.2592L67.3081 91.3411C67.3031 97.9163 67.4116 99.3326 67.8889 98.936C68.8965 98.0999 75.5554 94.9543 77.925 94.1955C83.6835 92.3509 92.7481 91.5758 97.1364 92.5522C103.932 94.0639 110.411 98.5978 113.631 104.094C116.211 108.499 117.091 111.8 117.355 118.08C117.636 124.72 116.87 135.976 115.821 140.63C115.272 143.064 115.236 143.949 115.652 144.726C116.455 146.227 118.896 147.324 122.196 147.665C125.584 148.016 126.304 148.501 125.889 150.154C125.618 151.235 125.413 151.317 123.007 151.314C119.838 151.312 117.421 150.674 115.154 149.241C111.631 147.017 111.359 145.667 112.653 136.849C113.073 133.991 113.544 128.801 113.7 125.318C114.227 113.56 112.644 107.648 107.593 102.522C102.492 97.3424 97.0356 95.3803 89.243 95.9207C83.3625 96.329 79.1292 97.4478 73.5683 100.065C69.7445 101.864 68.901 102.113 68.1692 101.656C67.3483 101.143 67.3022 101.269 67.3022 104.031C67.3022 106.202 67.5504 107.369 68.2723 108.593C69.1456 110.074 69.2143 110.661 68.9625 114.495L68.6827 118.752L70.3656 119.618C72.5729 120.754 74.3123 122.674 74.9131 124.637C75.1798 125.507 75.729 128.458 76.1345 131.194C76.997 137.015 79.4474 147.123 81.1417 151.846C86.2365 166.051 91.5443 174.928 100.809 184.738C104.135 188.26 107.149 192.045 108.793 194.765C109.879 196.561 110.439 196.875 116.483 199.077C121.477 200.896 122.244 200.932 126.331 199.541C144.498 193.36 158.51 179.307 167.425 158.326C170.969 149.986 173.927 138.319 175.563 126.219C176.571 118.771 177.034 101.581 176.206 102.365C175.332 103.194 174.336 103.064 172.118 101.832C166.79 98.8718 160.559 97.1412 153.867 96.7623C147.266 96.3887 143.771 97.2493 138.187 100.623L136.519 101.63L135.577 100.687C134.361 99.4706 134.886 98.3929 137.5 96.7415C141.402 94.276 144.472 93.3897 150.024 93.1247C158.425 92.724 165.901 94.4026 173.309 98.3531L176.694 100.158L176.689 95.5526L176.683 90.9468L172.928 89.739C164.642 87.0732 148.85 79.9368 143.133 76.2748C142.075 75.5969 139.481 73.9518 137.367 72.6187C135.254 71.2855 133.322 70.0293 133.073 69.8276C132.825 69.6255 130.426 67.8094 127.744 65.7916C122.477 61.8302 115.785 56.0342 111.245 51.5026C109.681 49.942 108.352 48.665 108.291 48.665C108.23 48.665 107.834 49.2506 107.412 49.9665ZM59.7944 86.6974C46.6298 93.6352 38.1433 99.5895 30.1043 107.53C27.2515 110.348 23.6719 114.322 22.149 116.361C18.4984 121.25 14.0675 129.277 13.7127 131.644C13.3271 134.219 14.553 142.1 16.5266 149.734C17.427 153.216 18.2208 156.135 18.2909 156.221C18.3605 156.307 19.9069 155.405 21.7272 154.217C26.4171 151.155 31.0789 148.741 36.5639 146.532L41.3102 144.62L41.3785 138.295C41.5001 127.027 43.1012 118.104 47.2238 105.718C48.5762 101.655 49.8912 97.9412 50.1457 97.465C50.7754 96.2879 52.546 96.3675 55.4092 97.7011C57.9243 98.8723 60.3892 101.709 60.8377 103.948C61.0402 104.959 61.3304 105.191 62.3863 105.191H63.6859V95.2428C63.6859 87.1591 63.5707 85.2942 63.0716 85.2942C62.7335 85.2942 61.259 85.9255 59.7944 86.6974ZM180.297 104.144C180.289 111.422 180.022 118.802 179.629 122.602C179.268 126.084 178.969 129.289 178.964 129.724C178.955 130.451 179.668 130.515 187.691 130.515C192.496 130.515 198.649 130.296 201.365 130.028C210.34 129.143 222.596 126.81 228.791 124.806L230.938 124.112L230.931 119.287C230.921 113.629 230.34 107.418 229.309 101.982L228.572 98.0931L219.924 97.7892C208.516 97.3886 197.225 96.0401 188.899 94.0834C187.283 93.704 185.046 93.1898 183.927 92.9411C182.808 92.6924 181.537 92.3826 181.102 92.2523C180.362 92.0317 180.31 92.809 180.297 104.144ZM52.2427 102.365C51.5045 104.076 49.4161 110.544 48.1152 115.146C45.5621 124.181 44.404 138.679 45.5797 146.884C47.8797 162.936 54.7298 176.976 73.2555 203.609C75.701 207.125 77.9914 210.695 78.3454 211.542C78.6993 212.39 79.2228 215.209 79.5085 217.807C79.7946 220.404 80.267 222.682 80.5585 222.867C82.8734 224.338 100.32 229.208 104.787 229.63C106.32 229.775 106.339 229.752 106.919 227.289C108.147 222.072 109.793 212.59 109.793 210.739C109.793 208.056 108.629 202.791 107.474 200.248C105.784 196.529 102.773 192.364 98.7416 188.172C83.9587 172.8 76.0102 155.224 71.7963 128.591C71.215 124.915 69.91 122.828 68.1927 122.828C67.2588 122.828 66.6915 125.494 65.8923 133.64C64.8915 143.842 67.0007 153.17 73.3888 166.797C74.7169 169.63 74.9352 170.466 74.5393 171.206C74.0456 172.128 72.911 172.383 72.0101 171.773C71.4225 171.375 69.731 167.766 67.0179 161.122C61.3625 147.272 60.7464 139.377 63.9472 121.789C64.7979 117.114 65.4941 112.781 65.4941 112.159C65.4941 110.566 63.5245 108.714 62.0206 108.893C60.7115 109.049 60.401 109.846 58.0002 119.21C55.5855 128.631 54.8658 137.986 55.9661 145.664C56.4936 149.347 58.5879 156.622 60.5249 161.5C62.0071 165.232 62.1535 166.236 61.3354 167.054C59.6059 168.784 58.4139 167.034 55.6008 158.634C52.7987 150.268 51.8146 144.917 51.8006 137.977C51.7938 134.495 52.0397 130.12 52.3476 128.254C52.9564 124.566 55.5177 113.981 56.9515 109.229C57.668 106.855 57.7489 105.996 57.3543 104.957C56.8476 103.624 54.1087 100.669 53.38 100.669C53.1572 100.669 52.645 101.433 52.2427 102.365ZM78.8612 107.259C78.4706 107.65 78.151 108.236 78.151 108.562C78.151 109.358 80.4989 111.1 83.8014 112.753C90.7225 116.218 96.6921 115.778 102.262 111.392C104.228 109.844 104.906 108.497 104.3 107.339C103.694 106.184 102.545 106.369 100.753 107.913C96.3707 111.688 91.4702 112.312 86.0706 109.784C84.418 109.01 82.4878 107.966 81.7817 107.463C80.2362 106.362 79.7892 106.331 78.8612 107.259ZM139.643 108.327C138.981 109.566 138.98 109.563 141.026 111.511C144.293 114.62 146.389 115.367 151.833 115.363C156.989 115.359 158.595 114.857 163.238 111.8C165.566 110.268 166.223 109.131 165.375 108.109C164.558 107.124 163.545 107.304 161.075 108.872C154.484 113.055 147.095 112.864 143.06 108.404C141.983 107.213 140.26 107.174 139.643 108.327ZM226.418 129.211C214.814 132.585 194.088 135.019 182.961 134.315L178.115 134.008L177.805 135.766C174.548 154.28 165.521 173.751 155.013 184.927C153.886 186.127 152.904 187.268 152.833 187.464C152.492 188.4 160.023 188.649 167.267 187.94C185.755 186.132 203.09 177.743 215.891 164.408C221.718 158.338 226.957 150.968 228.091 147.247C228.78 144.984 230.27 136.017 230.74 131.307C231.093 127.758 231.214 127.817 226.418 129.211ZM37.0159 150.144C30.88 152.804 21.6472 158.048 20.3544 159.606C19.7523 160.332 20.9104 163.727 23.6967 169.405C32.3749 187.088 45.5711 202.116 62.1038 213.14C66.5627 216.114 75.6147 221.083 75.9537 220.744C76.0708 220.627 75.9781 218.846 75.7475 216.787C75.3534 213.27 75.1766 212.825 72.8193 209.426C52.8674 180.658 46.6745 168.956 43.145 153.352C41.9354 148.003 41.9426 148.007 37.0159 150.144ZM222.721 162.322C222.393 162.654 221.019 164.193 219.67 165.744C211.671 174.932 197.607 183.949 185.057 187.937C175.163 191.081 162.668 192.563 153.726 191.653L148.645 191.135L146.131 193.045L143.618 194.956L143.905 199.025C144.646 209.521 147.847 218.108 153.064 223.595C154.123 224.708 155.27 225.48 155.866 225.48C157.485 225.48 166.984 221.594 172.626 218.623C186.51 211.314 198.819 200.901 209.224 187.663C213.051 182.795 220.181 170.32 222.697 164.092C223.701 161.605 223.705 161.327 222.721 162.322ZM103.262 162.775C102.786 163.123 102.537 163.785 102.631 164.446C102.825 165.81 106.015 167.466 111.828 169.221C115.446 170.313 116.621 170.448 122.45 170.449C128.382 170.449 129.344 170.334 132.575 169.232C137.224 167.646 140.639 166.071 141.392 165.162C141.899 164.552 141.876 164.255 141.253 163.303C140.844 162.68 140.406 162.17 140.276 162.17C140.147 162.17 138.692 162.801 137.042 163.573C135.392 164.345 132.095 165.482 129.715 166.099C126.028 167.056 124.721 167.187 120.868 166.985C116.643 166.763 113.067 166.081 110.131 164.937C108.876 164.448 104.828 162.65 104.322 162.357C104.173 162.27 103.696 162.458 103.262 162.775ZM114.994 179.8C114.52 181.292 115.251 182.01 117.773 182.534C121.214 183.249 127.572 182.699 128.565 181.601C129.124 180.984 129.189 180.574 128.836 179.914C128.409 179.115 127.82 179.04 121.806 179.029C115.971 179.018 115.215 179.104 114.994 179.8ZM136.689 199.177C132.904 201.202 125.455 204.097 123.047 204.479C121.772 204.682 120.212 204.384 117.081 203.342C114.749 202.566 112.747 202.024 112.633 202.139C112.519 202.253 112.671 203.446 112.972 204.79C113.832 208.636 113.322 215.721 111.634 223.361C110.82 227.046 110.292 230.2 110.463 230.371C111.028 230.936 132.432 230.705 136.689 230.088C140.882 229.48 150.478 227.438 150.839 227.077C150.952 226.964 150.228 225.898 149.232 224.707C144.452 218.992 142.149 212.642 140.21 199.837L139.854 197.484L136.689 199.177Z" fill="#E27E82"/>
</svg>
